<svg width="32" height="28" viewBox="0 0 32 28" fill="none" xmlns="http://www.w3.org/2000/svg">
<g clip-path="url(#clip0_11_102)">
<path d="M19.8101 24.1149L22.1845 25.3219H22.1822L19.8101 24.1149Z" fill="#249DAA"/>
<path d="M15.8764 20.6773L15.0204 23.4186L14.0086 25.1417V26.9431L12.2965 27.648L10.5065 27.883L7.78259 27.8047L6.22607 27.0998L7.70476 25.0634L7.93824 21.6172L7.15998 17.6227L8.24954 15.4296L7.31563 12.375L7.37549 9.22229L7.87549 7.22229L9.87549 4.22229L13.3755 2.72229L16.3755 3.22229L17.7443 6.65746L17.3551 10.182L14.7869 16.0562L15.8764 20.6773Z" fill="#249DAA"/>
<path d="M21.1689 26.7865L21.3246 27.0998L19.6124 27.0215L17.3555 26.5515L17.4333 25.9763L19.3011 24.8014L18.9898 22.2168L18.7563 20.2465L22.4141 19.7374L22.8811 20.2074L22.7254 22.0871L23.1924 23.9669L22.9589 25.22L22.8033 25.5333L21.3246 26.0033L21.1689 26.7865Z" fill="#249DAA"/>
<path d="M26.6165 11.3568L23.8148 15.038L23.1922 16.9178L22.2583 17.701L22.0248 19.0325L22.2583 19.5808L18.367 20.129L15.6431 18.7192L15.0205 16.0562L17.5888 10.182V6.65915L16.3755 3.22229L20.157 5.4826L20.5461 5.7959L20.7796 6.10919H21.0909H22.1805L23.6591 6.03087L24.2817 6.18751L24.8755 6.22229L24.7487 7.04907L24.9822 8.92882L26.6165 11.3568Z" fill="#249DAA"/>
<path d="M6.22647 26.8648H4.90344L3.73606 25.455L3.65823 23.6536L2.6465 22.0871L2.72432 19.3458L1.63477 13.1583L4.66996 12.845L7.08255 10.417L7.54951 7.36236L8.32776 6.42249L7.08255 12.375L8.01646 15.4296L6.93391 17.6227L7.70516 21.3822L7.47168 24.8284L6.22647 26.8648Z" fill="#249DAA"/>
<path d="M30.5858 17.1527L28.9514 19.6591L29.1849 22.4004L28.1732 25.5333L27.8619 27.3347L26.5388 27.4914L22.3363 27.5697L21.558 27.0998L21.4023 26.7865L21.5191 26.1599L22.8032 25.7683L23.1924 25.22L23.4258 23.9668L22.9635 22.0871V21.5576L23.1145 20.2073L22.4919 19.5808L22.2584 19.0325L22.4919 17.701L23.4258 16.9178L24.0484 15.038L25.3755 13.2223V11.2223L23.8755 9.22229V7.22228V6.22229H24.8755L29.8853 7.59732L32 12.5L30.5858 17.1527Z" fill="#249DAA"/>
<path d="M5.21474 7.67566L3.73606 5.75675L4.90344 4.30777L5.68169 2.81963V0.783234L9.54573 1.22028L11.8755 2.22229L9.87549 3.72229L8.09429 6.42249L7.31603 7.36237L6.84908 10.417L4.66996 12.61L2.12576 12.9233H1.79856H1.63477V12.6883L2.9578 12.4534L5.37039 10.5736L5.52604 10.0254V9.1638L5.37039 9.24212V8.22392L5.21474 8.30225V7.67566Z" fill="#249DAA"/>
<path d="M2.95737 12.2184L1.63434 12.4534L0.856081 12.1401L0.622605 11.6701V10.8086H0.311302L0.155651 10.6519V10.182L0.0778256 9.47708L0.305854 9.2006V8.92882L0.844407 8.29989L0.552561 7.76494L0.5798 7.17439L0 6.89242V6.03087L0.155651 5.95254L0.778256 6.10919L1.40086 5.63925H1.78999L2.33477 5.71757L3.6578 5.95254L4.98084 7.67565V8.53721L5.1396 8.45967V9.55541L5.29214 9.47708V10.0253L5.1396 10.5736L2.95737 12.2184Z" fill="#249DAA"/>
<path d="M5.4482 0.704907L8.87549 1.22229L5.4482 2.81963L4.66994 4.30777L3.50256 5.71758L1.7904 5.40429H1.40127L0.778666 5.87423L0.233887 5.71758L1.4791 3.21125V2.81963L1.32344 2.27137L2.64648 0H4.20299L5.4482 0.704907Z" fill="#249DAA"/>
<path d="M15.8755 3.22229L16.8755 5.22229L13.6975 3.13291L9.87549 4.22229L9.37549 1.22229L11.6741 2.12L15.8755 3.22229Z" fill="#249DAA"/>
<path d="M19.4175 5.05183L17.7832 6.10919L16.8882 3.56369L19.4175 5.05183Z" fill="#249DAA"/>
<path d="M8.01645 7.91062C8.01645 7.91062 7.51059 7.47985 7.5495 7.36236C7.58841 7.24488 9.87549 4.22229 9.87549 4.22229L8.01645 7.91062Z" fill="#249DAA"/>
</g>
<defs>
<clipPath id="clip0_11_102">
<rect width="32" height="28" fill="white"/>
</clipPath>
</defs>
</svg>
